<?xml version="1.0" encoding="UTF-8" standalone="no"?>
<!DOCTYPE svg PUBLIC "-//W3C//DTD SVG 1.1//EN"
 "http://www.w3.org/Graphics/SVG/1.1/DTD/svg11.dtd">
<!-- Generated by graphviz version 2.43.0 (0)
 -->
<!-- Title: %3 Pages: 1 -->
<svg width="3705pt" height="212pt"
 viewBox="0.00 0.00 3705.43 212.29" xmlns="http://www.w3.org/2000/svg" xmlns:xlink="http://www.w3.org/1999/xlink">
<g id="graph0" class="graph" transform="scale(1 1) rotate(0) translate(4 208.29)">
<title>%3</title>
<polygon fill="white" stroke="transparent" points="-4,4 -4,-208.29 3701.43,-208.29 3701.43,4 -4,4"/>
<!-- Ray_0_dist -->
<g id="node1" class="node">
<title>Ray_0_dist</title>
<polygon fill="lightgray" stroke="black" points="57,-150.36 0,-150.36 0,-132.36 57,-132.36 57,-150.36"/>
<text text-anchor="middle" x="28.5" y="-139.16" font-family="Times,serif" font-size="9.00">Ray_0_dist</text>
</g>
<!-- Ray_0_angle_0 -->
<g id="node2" class="node">
<title>Ray_0_angle_0</title>
<polygon fill="lightgray" stroke="black" points="147.5,-150.36 75.5,-150.36 75.5,-132.36 147.5,-132.36 147.5,-150.36"/>
<text text-anchor="middle" x="111.5" y="-139.16" font-family="Times,serif" font-size="9.00">Ray_0_angle_0</text>
</g>
<!-- cap -->
<g id="node35" class="node">
<title>cap</title>
<ellipse fill="lightblue" stroke="black" cx="257.5" cy="-21.21" rx="20.51" ry="20.51"/>
<text text-anchor="middle" x="257.5" y="-19.01" font-family="Times,serif" font-size="9.00">cap</text>
</g>
<!-- Ray_0_angle_0&#45;&gt;cap -->
<g id="edge1" class="edge">
<title>Ray_0_angle_0&#45;&gt;cap</title>
<path fill="none" stroke="red" stroke-width="0.22" stroke-dasharray="1,5" d="M115.83,-132.27C122.96,-119.54 138.2,-94.65 156.5,-78.43 178.25,-59.15 207.71,-43.69 229.2,-33.9"/>
<polygon fill="red" stroke="red" stroke-width="0.22" points="230.73,-37.06 238.46,-29.81 227.9,-30.65 230.73,-37.06"/>
</g>
<!-- Ray_1_dist -->
<g id="node3" class="node">
<title>Ray_1_dist</title>
<polygon fill="lightgray" stroke="black" points="500,-150.36 443,-150.36 443,-132.36 500,-132.36 500,-150.36"/>
<text text-anchor="middle" x="471.5" y="-139.16" font-family="Times,serif" font-size="9.00">Ray_1_dist</text>
</g>
<!-- Ray_1_angle_pi/2 -->
<g id="node4" class="node">
<title>Ray_1_angle_pi/2</title>
<polygon fill="lightgray" stroke="black" points="247,-150.36 166,-150.36 166,-132.36 247,-132.36 247,-150.36"/>
<text text-anchor="middle" x="206.5" y="-139.16" font-family="Times,serif" font-size="9.00">Ray_1_angle_pi/2</text>
</g>
<!-- Ray_1_angle_pi/2&#45;&gt;cap -->
<g id="edge3" class="edge">
<title>Ray_1_angle_pi/2&#45;&gt;cap</title>
<path fill="none" stroke="green" stroke-width="0.11" d="M210.01,-132.24C217.22,-115.52 234.02,-76.6 245.58,-49.83"/>
<polygon fill="green" stroke="green" stroke-width="0.11" points="248.82,-51.15 249.57,-40.58 242.39,-48.38 248.82,-51.15"/>
</g>
<!-- Ray_2_dist -->
<g id="node5" class="node">
<title>Ray_2_dist</title>
<polygon fill="lightgray" stroke="black" points="575,-150.36 518,-150.36 518,-132.36 575,-132.36 575,-150.36"/>
<text text-anchor="middle" x="546.5" y="-139.16" font-family="Times,serif" font-size="9.00">Ray_2_dist</text>
</g>
<!-- Ray_2_angle_pi -->
<g id="node6" class="node">
<title>Ray_2_angle_pi</title>
<polygon fill="lightgray" stroke="black" points="667.5,-150.36 593.5,-150.36 593.5,-132.36 667.5,-132.36 667.5,-150.36"/>
<text text-anchor="middle" x="630.5" y="-139.16" font-family="Times,serif" font-size="9.00">Ray_2_angle_pi</text>
</g>
<!-- 290 -->
<g id="node41" class="node">
<title>290</title>
<ellipse fill="white" stroke="black" cx="630.5" cy="-21.21" rx="21.43" ry="21.43"/>
<text text-anchor="middle" x="630.5" y="-19.01" font-family="Times,serif" font-size="9.00">290</text>
</g>
<!-- Ray_2_angle_pi&#45;&gt;290 -->
<g id="edge4" class="edge">
<title>Ray_2_angle_pi&#45;&gt;290</title>
<path fill="none" stroke="green" stroke-width="0.78" d="M630.5,-132.24C630.5,-116.2 630.5,-79.72 630.5,-53.15"/>
<polygon fill="green" stroke="green" stroke-width="0.78" points="634,-52.81 630.5,-42.81 627,-52.81 634,-52.81"/>
</g>
<!-- Ray_3_dist -->
<g id="node7" class="node">
<title>Ray_3_dist</title>
<polygon fill="lightgray" stroke="black" points="743,-150.36 686,-150.36 686,-132.36 743,-132.36 743,-150.36"/>
<text text-anchor="middle" x="714.5" y="-139.16" font-family="Times,serif" font-size="9.00">Ray_3_dist</text>
</g>
<!-- Ray_3_angle_&#45;pi/2 -->
<g id="node8" class="node">
<title>Ray_3_angle_&#45;pi/2</title>
<polygon fill="lightgray" stroke="black" points="349.5,-150.36 265.5,-150.36 265.5,-132.36 349.5,-132.36 349.5,-150.36"/>
<text text-anchor="middle" x="307.5" y="-139.16" font-family="Times,serif" font-size="9.00">Ray_3_angle_&#45;pi/2</text>
</g>
<!-- Ray_3_angle_&#45;pi/2&#45;&gt;cap -->
<g id="edge5" class="edge">
<title>Ray_3_angle_&#45;pi/2&#45;&gt;cap</title>
<path fill="none" stroke="green" stroke-width="0.12" d="M304.06,-132.24C296.99,-115.52 280.52,-76.6 269.19,-49.83"/>
<polygon fill="green" stroke="green" stroke-width="0.12" points="272.4,-48.43 265.27,-40.58 265.95,-51.16 272.4,-48.43"/>
</g>
<!-- Ray_4_dist -->
<g id="node9" class="node">
<title>Ray_4_dist</title>
<polygon fill="lightgray" stroke="black" points="425,-150.36 368,-150.36 368,-132.36 425,-132.36 425,-150.36"/>
<text text-anchor="middle" x="396.5" y="-139.16" font-family="Times,serif" font-size="9.00">Ray_4_dist</text>
</g>
<!-- Ray_4_dist&#45;&gt;cap -->
<g id="edge2" class="edge">
<title>Ray_4_dist&#45;&gt;cap</title>
<path fill="none" stroke="red" stroke-width="0.7" d="M393.15,-132.23C387.56,-119.45 375.26,-94.49 358.5,-78.43 337.39,-58.2 307.6,-42.79 285.84,-33.26"/>
<polygon fill="red" stroke="red" stroke-width="0.7" points="287.04,-29.97 276.47,-29.3 284.32,-36.42 287.04,-29.97"/>
</g>
<!-- Ray_4_angle_pi/6 -->
<g id="node10" class="node">
<title>Ray_4_angle_pi/6</title>
<polygon fill="lightgray" stroke="black" points="842,-150.36 761,-150.36 761,-132.36 842,-132.36 842,-150.36"/>
<text text-anchor="middle" x="801.5" y="-139.16" font-family="Times,serif" font-size="9.00">Ray_4_angle_pi/6</text>
</g>
<!-- Ray_5_dist -->
<g id="node11" class="node">
<title>Ray_5_dist</title>
<polygon fill="lightgray" stroke="black" points="917,-150.36 860,-150.36 860,-132.36 917,-132.36 917,-150.36"/>
<text text-anchor="middle" x="888.5" y="-139.16" font-family="Times,serif" font-size="9.00">Ray_5_dist</text>
</g>
<!-- Ray_5_angle_&#45;pi/6 -->
<g id="node12" class="node">
<title>Ray_5_angle_&#45;pi/6</title>
<polygon fill="lightgray" stroke="black" points="1019.5,-150.36 935.5,-150.36 935.5,-132.36 1019.5,-132.36 1019.5,-150.36"/>
<text text-anchor="middle" x="977.5" y="-139.16" font-family="Times,serif" font-size="9.00">Ray_5_angle_&#45;pi/6</text>
</g>
<!-- message 0 bit 0 -->
<g id="node13" class="node">
<title>message 0 bit 0</title>
<polygon fill="lightgray" stroke="black" points="1109,-150.36 1038,-150.36 1038,-132.36 1109,-132.36 1109,-150.36"/>
<text text-anchor="middle" x="1073.5" y="-139.16" font-family="Times,serif" font-size="9.00">message 0 bit 0</text>
</g>
<!-- message 0 bit 1 -->
<g id="node14" class="node">
<title>message 0 bit 1</title>
<polygon fill="lightgray" stroke="black" points="1198,-150.36 1127,-150.36 1127,-132.36 1198,-132.36 1198,-150.36"/>
<text text-anchor="middle" x="1162.5" y="-139.16" font-family="Times,serif" font-size="9.00">message 0 bit 1</text>
</g>
<!-- message 0 bit 2 -->
<g id="node15" class="node">
<title>message 0 bit 2</title>
<polygon fill="lightgray" stroke="black" points="1287,-150.36 1216,-150.36 1216,-132.36 1287,-132.36 1287,-150.36"/>
<text text-anchor="middle" x="1251.5" y="-139.16" font-family="Times,serif" font-size="9.00">message 0 bit 2</text>
</g>
<!-- message 0 bit 3 -->
<g id="node16" class="node">
<title>message 0 bit 3</title>
<polygon fill="lightgray" stroke="black" points="1376,-150.36 1305,-150.36 1305,-132.36 1376,-132.36 1376,-150.36"/>
<text text-anchor="middle" x="1340.5" y="-139.16" font-family="Times,serif" font-size="9.00">message 0 bit 3</text>
</g>
<!-- message 0 bit 4 -->
<g id="node17" class="node">
<title>message 0 bit 4</title>
<polygon fill="lightgray" stroke="black" points="1465,-150.36 1394,-150.36 1394,-132.36 1465,-132.36 1465,-150.36"/>
<text text-anchor="middle" x="1429.5" y="-139.16" font-family="Times,serif" font-size="9.00">message 0 bit 4</text>
</g>
<!-- message 1 bit 0 -->
<g id="node18" class="node">
<title>message 1 bit 0</title>
<polygon fill="lightgray" stroke="black" points="1554,-150.36 1483,-150.36 1483,-132.36 1554,-132.36 1554,-150.36"/>
<text text-anchor="middle" x="1518.5" y="-139.16" font-family="Times,serif" font-size="9.00">message 1 bit 0</text>
</g>
<!-- message 1 bit 1 -->
<g id="node19" class="node">
<title>message 1 bit 1</title>
<polygon fill="lightgray" stroke="black" points="1643,-150.36 1572,-150.36 1572,-132.36 1643,-132.36 1643,-150.36"/>
<text text-anchor="middle" x="1607.5" y="-139.16" font-family="Times,serif" font-size="9.00">message 1 bit 1</text>
</g>
<!-- message 1 bit 2 -->
<g id="node20" class="node">
<title>message 1 bit 2</title>
<polygon fill="lightgray" stroke="black" points="1732,-150.36 1661,-150.36 1661,-132.36 1732,-132.36 1732,-150.36"/>
<text text-anchor="middle" x="1696.5" y="-139.16" font-family="Times,serif" font-size="9.00">message 1 bit 2</text>
</g>
<!-- message 1 bit 3 -->
<g id="node21" class="node">
<title>message 1 bit 3</title>
<polygon fill="lightgray" stroke="black" points="1821,-150.36 1750,-150.36 1750,-132.36 1821,-132.36 1821,-150.36"/>
<text text-anchor="middle" x="1785.5" y="-139.16" font-family="Times,serif" font-size="9.00">message 1 bit 3</text>
</g>
<!-- message 1 bit 4 -->
<g id="node22" class="node">
<title>message 1 bit 4</title>
<polygon fill="lightgray" stroke="black" points="1910,-150.36 1839,-150.36 1839,-132.36 1910,-132.36 1910,-150.36"/>
<text text-anchor="middle" x="1874.5" y="-139.16" font-family="Times,serif" font-size="9.00">message 1 bit 4</text>
</g>
<!-- message 2 bit 0 -->
<g id="node23" class="node">
<title>message 2 bit 0</title>
<polygon fill="lightgray" stroke="black" points="1999,-150.36 1928,-150.36 1928,-132.36 1999,-132.36 1999,-150.36"/>
<text text-anchor="middle" x="1963.5" y="-139.16" font-family="Times,serif" font-size="9.00">message 2 bit 0</text>
</g>
<!-- message 2 bit 1 -->
<g id="node24" class="node">
<title>message 2 bit 1</title>
<polygon fill="lightgray" stroke="black" points="2088,-150.36 2017,-150.36 2017,-132.36 2088,-132.36 2088,-150.36"/>
<text text-anchor="middle" x="2052.5" y="-139.16" font-family="Times,serif" font-size="9.00">message 2 bit 1</text>
</g>
<!-- message 2 bit 2 -->
<g id="node25" class="node">
<title>message 2 bit 2</title>
<polygon fill="lightgray" stroke="black" points="2177,-150.36 2106,-150.36 2106,-132.36 2177,-132.36 2177,-150.36"/>
<text text-anchor="middle" x="2141.5" y="-139.16" font-family="Times,serif" font-size="9.00">message 2 bit 2</text>
</g>
<!-- message 2 bit 3 -->
<g id="node26" class="node">
<title>message 2 bit 3</title>
<polygon fill="lightgray" stroke="black" points="2266,-150.36 2195,-150.36 2195,-132.36 2266,-132.36 2266,-150.36"/>
<text text-anchor="middle" x="2230.5" y="-139.16" font-family="Times,serif" font-size="9.00">message 2 bit 3</text>
</g>
<!-- message 2 bit 4 -->
<g id="node27" class="node">
<title>message 2 bit 4</title>
<polygon fill="lightgray" stroke="black" points="2355,-150.36 2284,-150.36 2284,-132.36 2355,-132.36 2355,-150.36"/>
<text text-anchor="middle" x="2319.5" y="-139.16" font-family="Times,serif" font-size="9.00">message 2 bit 4</text>
</g>
<!-- message 3 bit 0 -->
<g id="node28" class="node">
<title>message 3 bit 0</title>
<polygon fill="lightgray" stroke="black" points="2444,-150.36 2373,-150.36 2373,-132.36 2444,-132.36 2444,-150.36"/>
<text text-anchor="middle" x="2408.5" y="-139.16" font-family="Times,serif" font-size="9.00">message 3 bit 0</text>
</g>
<!-- message 3 bit 1 -->
<g id="node29" class="node">
<title>message 3 bit 1</title>
<polygon fill="lightgray" stroke="black" points="2533,-150.36 2462,-150.36 2462,-132.36 2533,-132.36 2533,-150.36"/>
<text text-anchor="middle" x="2497.5" y="-139.16" font-family="Times,serif" font-size="9.00">message 3 bit 1</text>
</g>
<!-- message 3 bit 2 -->
<g id="node30" class="node">
<title>message 3 bit 2</title>
<polygon fill="lightgray" stroke="black" points="2622,-150.36 2551,-150.36 2551,-132.36 2622,-132.36 2622,-150.36"/>
<text text-anchor="middle" x="2586.5" y="-139.16" font-family="Times,serif" font-size="9.00">message 3 bit 2</text>
</g>
<!-- message 3 bit 3 -->
<g id="node31" class="node">
<title>message 3 bit 3</title>
<polygon fill="lightgray" stroke="black" points="2711,-150.36 2640,-150.36 2640,-132.36 2711,-132.36 2711,-150.36"/>
<text text-anchor="middle" x="2675.5" y="-139.16" font-family="Times,serif" font-size="9.00">message 3 bit 3</text>
</g>
<!-- message 3 bit 4 -->
<g id="node32" class="node">
<title>message 3 bit 4</title>
<polygon fill="lightgray" stroke="black" points="2800,-150.36 2729,-150.36 2729,-132.36 2800,-132.36 2800,-150.36"/>
<text text-anchor="middle" x="2764.5" y="-139.16" font-family="Times,serif" font-size="9.00">message 3 bit 4</text>
</g>
<!-- message 4 bit 0 -->
<g id="node33" class="node">
<title>message 4 bit 0</title>
<polygon fill="lightgray" stroke="black" points="2889,-150.36 2818,-150.36 2818,-132.36 2889,-132.36 2889,-150.36"/>
<text text-anchor="middle" x="2853.5" y="-139.16" font-family="Times,serif" font-size="9.00">message 4 bit 0</text>
</g>
<!-- message 4 bit 1 -->
<g id="node34" class="node">
<title>message 4 bit 1</title>
<polygon fill="lightgray" stroke="black" points="2978,-150.36 2907,-150.36 2907,-132.36 2978,-132.36 2978,-150.36"/>
<text text-anchor="middle" x="2942.5" y="-139.16" font-family="Times,serif" font-size="9.00">message 4 bit 1</text>
</g>
<!-- message send byte 0 -->
<g id="node36" class="node">
<title>message send byte 0</title>
<ellipse fill="lightblue" stroke="black" cx="3058.5" cy="-141.36" rx="62.87" ry="62.87"/>
<text text-anchor="middle" x="3058.5" y="-139.16" font-family="Times,serif" font-size="9.00">message send byte 0</text>
</g>
<!-- message send byte 1 -->
<g id="node37" class="node">
<title>message send byte 1</title>
<ellipse fill="lightblue" stroke="black" cx="3202.5" cy="-141.36" rx="62.87" ry="62.87"/>
<text text-anchor="middle" x="3202.5" y="-139.16" font-family="Times,serif" font-size="9.00">message send byte 1</text>
</g>
<!-- message send byte 2 -->
<g id="node38" class="node">
<title>message send byte 2</title>
<ellipse fill="lightblue" stroke="black" cx="3346.5" cy="-141.36" rx="62.87" ry="62.87"/>
<text text-anchor="middle" x="3346.5" y="-139.16" font-family="Times,serif" font-size="9.00">message send byte 2</text>
</g>
<!-- message send byte 3 -->
<g id="node39" class="node">
<title>message send byte 3</title>
<ellipse fill="lightblue" stroke="black" cx="3490.5" cy="-141.36" rx="62.87" ry="62.87"/>
<text text-anchor="middle" x="3490.5" y="-139.16" font-family="Times,serif" font-size="9.00">message send byte 3</text>
</g>
<!-- message send byte 4 -->
<g id="node40" class="node">
<title>message send byte 4</title>
<ellipse fill="lightblue" stroke="black" cx="3634.5" cy="-141.36" rx="62.87" ry="62.87"/>
<text text-anchor="middle" x="3634.5" y="-139.16" font-family="Times,serif" font-size="9.00">message send byte 4</text>
</g>
</g>
</svg>
